<svg xmlns="http://www.w3.org/2000/svg" xmlns:xlink="http://www.w3.org/1999/xlink" width="155" height="172" viewBox="0 0 155 172"><defs><clipPath id="a"><rect width="155" height="172" transform="translate(220 31)" fill="#fff" stroke="#707070" stroke-width="1"/></clipPath></defs><g transform="translate(-220 -31)" clip-path="url(#a)"><path d="M158.562,159.994C114.474,156.639,61.9,122.478,64.572,87.3s53.6-67.92,97.688-64.565S231.728,91.829,229.052,127,202.651,163.35,158.562,159.994Z" transform="translate(182.541 13.5)" fill="#f2f2f2"/><ellipse cx="92.034" cy="5.638" rx="92.034" ry="5.638" transform="translate(252.767 167.867)" fill="#3f3d56"/><ellipse cx="78.393" cy="3.729" rx="78.393" ry="3.729" transform="translate(266.408 169.686)" opacity="0.1"/><ellipse cx="38.595" cy="3.365" rx="38.595" ry="3.365" transform="translate(242 184.783)" fill="#3f3d56"/><ellipse cx="32.874" cy="2.225" rx="32.874" ry="2.225" transform="translate(247.721 185.868)" opacity="0.1"/><rect width="136.778" height="107.313" transform="translate(277.685 65.466)" fill="#3f3d56"/><path d="M446.925,261.445H413.182a.41.41,0,0,1,0-.819h33.743a.41.41,0,0,1,0,.819Z" transform="translate(-102.407 -181.314)" fill="#f2f2f2"/><path d="M563.065,286.211H509.993a.41.41,0,1,1,0-.819h53.072a.41.41,0,0,1,0,.819Z" transform="translate(-181.61 -201.576)" fill="#f2f2f2"/><path d="M447.825,310.977H414.082a.41.41,0,1,1,0-.819h33.743a.41.41,0,0,1,0,.819Z" transform="translate(-103.144 -221.837)" fill="#f2f2f2"/><path d="M650,311.427H616.26a.41.41,0,0,1,0-.819H650a.41.41,0,0,1,0,.819Z" transform="translate(-268.548 -222.205)" fill="#f2f2f2"/><path d="M448.275,335.742H414.532a.41.41,0,1,1,0-.819h33.743a.41.41,0,1,1,0,.819Z" transform="translate(-103.512 -242.098)" fill="#f2f2f2"/><path d="M448.726,360.508H414.983a.41.41,0,0,1,0-.819h33.743a.41.41,0,0,1,0,.819Z" transform="translate(-103.881 -262.359)" fill="#f2f2f2"/><path d="M641.234,261.9H631.57a.41.41,0,1,1,0-.819h9.664a.41.41,0,0,1,0,.819Z" transform="translate(-281.074 -181.683)" fill="#f2f2f2"/><path d="M641.234,335.742H631.57a.41.41,0,1,1,0-.819h9.664a.41.41,0,0,1,0,.819Z" transform="translate(-281.074 -242.098)" fill="#f2f2f2"/><path d="M641.234,360.058H631.57a.41.41,0,1,1,0-.819h9.664a.41.41,0,0,1,0,.819Z" transform="translate(-281.074 -261.991)" fill="#f2f2f2"/><path d="M730.391,360.058h-9.664a.41.41,0,0,1,0-.819h9.664a.41.41,0,1,1,0,.819Z" transform="translate(-354.014 -261.991)" fill="#f2f2f2"/><path d="M422.4,286.211h-9.664a.41.41,0,0,1,0-.819H422.4a.41.41,0,1,1,0,.819Z" transform="translate(-102.038 -201.576)" fill="#f2f2f2"/><path d="M447.15,626.177H413.407a.409.409,0,1,1,0-.819H447.15a.409.409,0,1,1,0,.819Z" transform="translate(-102.591 -479.707)" fill="#f2f2f2"/><path d="M446.249,675.708H412.506a.409.409,0,1,1,0-.819h33.743a.409.409,0,1,1,0,.819Z" transform="translate(-101.854 -520.229)" fill="#f2f2f2"/><path d="M446.7,700.474H412.956a.409.409,0,1,1,0-.819H446.7a.409.409,0,1,1,0,.819Z" transform="translate(-102.222 -540.49)" fill="#f2f2f2"/><path d="M634.255,676.158h-9.664a.409.409,0,1,1,0-.819h9.664a.41.41,0,1,1,0,.819Z" transform="translate(-275.364 -520.597)" fill="#f2f2f2"/><path d="M634.255,700.474h-9.664a.409.409,0,1,1,0-.819h9.664a.409.409,0,1,1,0,.819Z" transform="translate(-275.364 -540.49)" fill="#f2f2f2"/><path d="M723.411,676.158h-9.664a.409.409,0,1,1,0-.819h9.664a.41.41,0,1,1,0,.819Z" transform="translate(-348.304 -520.597)" fill="#f2f2f2"/><path d="M563.29,650.942H510.218a.41.41,0,1,1,0-.819H563.29a.41.41,0,0,1,0,.819Z" transform="translate(-181.794 -499.967)" fill="#f2f2f2"/><path d="M422.62,650.942h-9.664a.41.41,0,0,1,0-.819h9.664a.41.41,0,1,1,0,.819Z" transform="translate(-102.222 -499.967)" fill="#f2f2f2"/><path d="M563.29,725.69H510.218a.409.409,0,1,1,0-.819H563.29a.409.409,0,0,1,0,.819Z" transform="translate(-181.794 -561.12)" fill="#f2f2f2"/><path d="M422.62,725.69h-9.664a.409.409,0,0,1,0-.819h9.664a.409.409,0,1,1,0,.819Z" transform="translate(-102.222 -561.12)" fill="#f2f2f2"/><path d="M460.118,401.13l-13.1,12.94,13.1,12.94,2.948-2.948-9.91-9.91,9.992-9.992Z" transform="translate(-123.709 -292.17)" fill="#61cd9e"/><path d="M611.7,401.13l13.1,12.94-13.1,12.94-2.948-2.948,9.91-9.91-9.992-9.992Z" transform="translate(-255.959 -292.17)" fill="#61cd9e"/><circle cx="1.637" cy="1.637" r="1.637" transform="translate(279.686 66.557)" fill="#61cd9e"/><circle cx="1.637" cy="1.637" r="1.637" transform="translate(284.051 66.557)" fill="#61cd9e"/><circle cx="1.637" cy="1.637" r="1.637" transform="translate(288.416 66.557)" fill="#61cd9e"/><rect width="136.778" height="0.546" transform="translate(277.685 70.922)" opacity="0.1"/><path d="M135.748,768.787a7.845,7.845,0,0,1-1.487.637c-.924.252-1.911.16-2.844.375a1.17,1.17,0,0,0-.919.645,1.356,1.356,0,0,0,.1.841c1.031,3.023,1.652,6.233,3.3,8.971a13.576,13.576,0,0,0,2.545,3.09,2.427,2.427,0,0,0,1.3.719,1.318,1.318,0,0,0,1.341-1.852c-.147-.328-.421-.581-.6-.894a3.412,3.412,0,0,1-.331-1.272,8.266,8.266,0,0,1,.129-3.868,13,13,0,0,1,1.311-2.264,3.952,3.952,0,0,0,.738-2.463,4.278,4.278,0,0,0-.664-1.647c-.306-.513-.91-1.893-1.525-2.065C137.5,767.564,136.3,768.5,135.748,768.787Z" transform="translate(128.555 -596.174)" fill="#2f2e41"/><path d="M246.4,814.826a2.549,2.549,0,0,1-.121.863c-.192.508-.67.856-.916,1.34a2.96,2.96,0,0,0,.04,2.207,2.262,2.262,0,0,0,.712,1.2,2.346,2.346,0,0,0,1.083.347c3.281.454,6.613.194,9.923.289a3.388,3.388,0,0,0,1.769-.256,1.115,1.115,0,0,0,.494-1.522c-.322-.436-.958-.432-1.5-.458a6.168,6.168,0,0,1-3.8-1.567,2.749,2.749,0,0,1-.534-.614,3.777,3.777,0,0,1-.279-.64,28.523,28.523,0,0,0-1.652-3.659,1.939,1.939,0,0,0-.71-.851,1.878,1.878,0,0,0-.771-.168c-.825-.053-2.962-.334-3.6.307C245.943,812.237,246.411,814.073,246.4,814.826Z" transform="translate(34.718 -631.771)" fill="#2f2e41"/><circle cx="5.27" cy="5.27" r="5.27" transform="translate(280.923 99.25)" fill="#fbbebe"/><path d="M246.427,412.151a3.961,3.961,0,0,1-1.619,2.079l7.289,1.487a7.721,7.721,0,0,1-.1-3.25,1.873,1.873,0,0,0,.044-.8c-.137-.529-.732-.783-1.265-.9a16.9,16.9,0,0,1-3.743-1.053A17.619,17.619,0,0,0,246.427,412.151Z" transform="translate(35.006 -303.279)" fill="#fbbebe"/><path d="M214.777,421.447a5.7,5.7,0,0,1,4.968.13,11.245,11.245,0,0,1,2.468,1.969,3.942,3.942,0,0,1,1.5,2.422,6.788,6.788,0,0,1-.2,1.4,4.686,4.686,0,0,0,2.506,4.814,6.378,6.378,0,0,1,.707,3.258c.034,4.263-1.311,8.578-.351,12.731.225.975.575,1.92.77,2.9.252,1.272.24,2.579.372,3.869a17.328,17.328,0,0,0,.93,4.092,1.7,1.7,0,0,1-1.572.657,4.44,4.44,0,0,1-1.681-.57c-2.569-1.315-4.922-3.048-7.582-4.165-1.76-.739-3.635-1.2-5.343-2.053a7,7,0,0,1-3.818-4.045,9.467,9.467,0,0,1-.252-2.456,44.584,44.584,0,0,1,.657-10.385c.667-2.993,1.954-5.856,2.234-8.909a6.062,6.062,0,0,1,.649-2.887C212.525,423.046,214.219,422.742,214.777,421.447Z" transform="translate(64.977 -312.469)" fill="#2f2e41"/><path d="M237.661,363.471a1.362,1.362,0,0,1,1.406-.34c.5.12.954.375,1.455.473a.85.85,0,0,0,.681-.1.99.99,0,0,0,.294-.649,12.4,12.4,0,0,0,.122-3.161.936.936,0,0,1,.029-.443c.124-.3.5-.37.812-.466a2.422,2.422,0,0,0,1.639-2.48.986.986,0,0,0-.3-.68,1.24,1.24,0,0,0-.789-.187q-2.125-.017-4.25,0a3.086,3.086,0,0,0-1.53.279,7.433,7.433,0,0,0-.888.748,8.7,8.7,0,0,1-2.809,1.09,2.784,2.784,0,0,0-1.231.734,1.3,1.3,0,0,0-.271,1.345,4.775,4.775,0,0,0,.343.528c.565.9.189,2.074.273,3.136a5.736,5.736,0,0,0,3.4,3.79C238.191,367.6,236.95,364.341,237.661,363.471Z" transform="translate(45.535 -258.877)" fill="#2f2e41"/><path d="M242.455,677.616a15.73,15.73,0,0,1,.263,2.916c-.065,1.363-.556,2.676-.647,4.038-.068,1.017.089,2.045-.052,3.054-.09.646-.3,1.269-.432,1.909a7.893,7.893,0,0,0,1.268,6.051.991.991,0,0,0,.368.357,1.038,1.038,0,0,0,.456.06,32.73,32.73,0,0,0,4.578-.416.439.439,0,0,0,.294-.13.412.412,0,0,0,.064-.173c.281-1.443-.36-2.891-.522-4.352a13.508,13.508,0,0,1,.572-4.65,20.651,20.651,0,0,1,.631-2.224c.18-.491.4-.968.552-1.466a11.18,11.18,0,0,0,.4-2.4q.162-1.924.172-3.856a16.179,16.179,0,0,0-.3-3.64,19.4,19.4,0,0,0-1.734-4.316,2.733,2.733,0,0,0-1.022.486,22.8,22.8,0,0,1-2.792,1.542c-.649.3-1.914.515-2.326,1.143s-.144,1.883-.113,2.566Q242.21,675.87,242.455,677.616Z" transform="translate(37.766 -514.899)" fill="#2f2e41"/><path d="M242.455,677.616a15.73,15.73,0,0,1,.263,2.916c-.065,1.363-.556,2.676-.647,4.038-.068,1.017.089,2.045-.052,3.054-.09.646-.3,1.269-.432,1.909a7.893,7.893,0,0,0,1.268,6.051.991.991,0,0,0,.368.357,1.038,1.038,0,0,0,.456.06,32.73,32.73,0,0,0,4.578-.416.439.439,0,0,0,.294-.13.412.412,0,0,0,.064-.173c.281-1.443-.36-2.891-.522-4.352a13.508,13.508,0,0,1,.572-4.65,20.651,20.651,0,0,1,.631-2.224c.18-.491.4-.968.552-1.466a11.18,11.18,0,0,0,.4-2.4q.162-1.924.172-3.856a16.179,16.179,0,0,0-.3-3.64,19.4,19.4,0,0,0-1.734-4.316,2.733,2.733,0,0,0-1.022.486,22.8,22.8,0,0,1-2.792,1.542c-.649.3-1.914.515-2.326,1.143s-.144,1.883-.113,2.566Q242.21,675.87,242.455,677.616Z" transform="translate(37.766 -514.899)" opacity="0.1"/><path d="M176.738,605.518c-.7,1.884.329,3.92,1.223,5.721a100.033,100.033,0,0,1,5.252,13.881,1.7,1.7,0,0,1,.1,1.087,1.423,1.423,0,0,1-.513.609,12.118,12.118,0,0,1-3.633,1.5,16.4,16.4,0,0,0-3.445,1.615c-.905.561-1.753,1.208-2.6,1.855l-2.694,2.058a1.8,1.8,0,0,0-.45.436,1.761,1.761,0,0,0-.024,1.406,23.907,23.907,0,0,0,1.319,3.6,1.257,1.257,0,0,0,.478.627c.421.226.935-.074,1.256-.427s.6-.793,1.051-.944.95.032,1.422-.034c.764-.107,1.271-.811,1.821-1.351,2.249-2.206,6-2.046,8.478-4a10.771,10.771,0,0,1,1.133-.885c.418-.247.893-.383,1.327-.6a5.624,5.624,0,0,0,2.594-3.448c.444-1.409.571-2.9.891-4.34a18.872,18.872,0,0,0,.456-2.244,12.021,12.021,0,0,0-.046-2.122l-.893-11.043c-.073-.9-.146-1.8-.287-2.69-2.651.095-5.3.2-7.953.233A18.971,18.971,0,0,1,176.738,605.518Z" transform="translate(96.357 -463.475)" fill="#2f2e41"/><path d="M201.354,600.239a1.416,1.416,0,0,0,1.838.249c.6-.317,1.071-.85,1.675-1.164a5.443,5.443,0,0,1,2.688-.381,17.473,17.473,0,0,1,4.308.481c1.441.411,2.845,1.2,4.335,1.043a.892.892,0,0,0,.684-.321,1.008,1.008,0,0,0,.113-.516l.049-1.3a1.176,1.176,0,0,0-.1-.659,1.106,1.106,0,0,0-.494-.378,17.048,17.048,0,0,0-6.9-1.3q-1.8-.062-3.594-.051a13.1,13.1,0,0,0-3.226.131C201.4,596.437,200.681,599.156,201.354,600.239Z" transform="translate(70.766 -455.613)" fill="#2f2e41"/><path d="M213.348,423.639c-2.78-.025-5.3-1.859-8.078-1.9a2.1,2.1,0,0,0-.981.169,3.652,3.652,0,0,0-.936.891c-.822.89-2.012,1.365-2.856,2.234a3.313,3.313,0,0,0-.919,3.12,2.318,2.318,0,0,0,2.6,1.667,6.693,6.693,0,0,1,2.608-3.543,13.258,13.258,0,0,1,2.038-1.07c1.249-.566,2.646-1.143,3.95-.718a5.572,5.572,0,0,1,1.348.735l2.174,1.461A15.136,15.136,0,0,0,213.348,423.639Z" transform="translate(72.093 -313.116)" fill="#46b2a2"/><path d="M195.156,439.024c-.369.46.163,1.128.081,1.712-.054.388-.374.685-.507,1.054a5.648,5.648,0,0,0-.117,1.208,5.182,5.182,0,0,1-.232.86,15.456,15.456,0,0,0-.489,2.551l-.487,3.633a13.768,13.768,0,0,0-.154,1.651,4.929,4.929,0,0,1-.082,1.234,9.117,9.117,0,0,1-.507,1.123,1.316,1.316,0,0,0-.018,1.187,2.074,2.074,0,0,0-.434,2.589,1.437,1.437,0,0,1,.224.412,1.059,1.059,0,0,1-.1.608l-.492,1.311c-.126.336-.166.846.184.923a3.093,3.093,0,0,0-.664,1.049,1.249,1.249,0,0,0,.177,1.183,1.507,1.507,0,0,1,.308.374,1,1,0,0,1-.036.59,2.166,2.166,0,0,0,.268,1.7,1.523,1.523,0,0,0,1.531.656,7,7,0,0,1,2.861-.39,51.106,51.106,0,0,1,6.349,1.446c2.362.754,4.648,1.86,7.116,2.092a.691.691,0,0,0,.476-.074.715.715,0,0,0,.22-.452l.763-3.577a36.811,36.811,0,0,0,.7-4.007c.087-.87.112-1.744.136-2.618l.2-6.954a6.948,6.948,0,0,0-.4-3.023l-1.131-3.61c-.645-2.06-2.126-3.887-2.653-5.981a8.841,8.841,0,0,0-1.475-3.78c-1.275-1.472-3.482-1.7-5.414-1.448a6.468,6.468,0,0,0-2.507.764,8.216,8.216,0,0,0-2.138,2.153C196.2,437.836,195.681,438.37,195.156,439.024Z" transform="translate(78.792 -323.29)" fill="#61cd9e"/><path d="M236.536,553.035c.159.686.493,1.319.7,1.993.343,1.129.314,2.345.656,3.475.144.474.352.929.455,1.414a5.858,5.858,0,0,1-.546,3.368,13.159,13.159,0,0,0-1.108,3.27,2.505,2.505,0,0,0,.666,2.243,3.278,3.278,0,0,0,2.426.435,2.55,2.55,0,0,0,.881-.183,2.377,2.377,0,0,0,1.065-1.762,26.141,26.141,0,0,0,.214-7.129l-.383-6.227a14.574,14.574,0,0,0-.522-3.573,3.408,3.408,0,0,0-.751-1.532,5.054,5.054,0,0,0-1.93-.3C236.155,548.423,236.18,551.495,236.536,553.035Z" transform="translate(41.922 -416.848)" fill="#fbbebe"/><path d="M230.939,446.329a1.515,1.515,0,0,0-1.45.128,4.469,4.469,0,0,0-1.086,1.055c-.971,1.185-2,2.545-1.855,4.071a10.325,10.325,0,0,0,.421,1.668c.651,2.434-.069,5.007.014,7.525a23.562,23.562,0,0,0,.68,4.307c.064.29.167.626.448.723a.973.973,0,0,0,.647-.1,5.16,5.16,0,0,1,4.722.6c.521-.278.326-1.157.209-1.736a9.979,9.979,0,0,1,.7-5.154,18.985,18.985,0,0,0,1.352-5.068,15.486,15.486,0,0,0-1.2-5.8,1.866,1.866,0,0,0-1.572-1.556A10.844,10.844,0,0,1,230.939,446.329Z" transform="translate(49.957 -333.132)" fill="#2f2e41"/></g></svg>