<svg xmlns="http://www.w3.org/2000/svg" width="635" height="482.087" viewBox="0 0 635 482.087"><g transform="translate(-1069 -163.95)"><ellipse cx="119.644" cy="10.431" rx="119.644" ry="10.431" transform="translate(1069 625.175)" fill="#3f3d56"/><ellipse cx="101.91" cy="6.898" rx="101.91" ry="6.898" transform="translate(1086.734 628.54)" opacity="0.1"/><path d="M356.148,448.732C219.472,438.33,56.48,332.43,64.778,223.387S230.936,12.835,367.611,23.236s215.35,214.183,207.052,323.226S492.822,459.133,356.148,448.732Z" transform="translate(1020.072 141.45)" fill="#f2f2f2"/><ellipse cx="285.305" cy="17.479" rx="285.305" ry="17.479" transform="translate(1102.376 572.738)" fill="#3f3d56"/><ellipse cx="243.017" cy="11.559" rx="243.017" ry="11.559" transform="translate(1144.665 578.376)" opacity="0.1"/><rect width="424.011" height="332.668" transform="translate(1179.623 255.293)" fill="#3f3d56"/><path d="M518.645,263.165h-104.6a1.269,1.269,0,0,1,0-2.539h104.6a1.269,1.269,0,0,1,0,2.539Z" transform="translate(868.159 37.59)" fill="#f2f2f2"/><path d="M675.374,287.931H510.853a1.269,1.269,0,1,1,0-2.539H675.374a1.269,1.269,0,1,1,0,2.539Z" transform="translate(825.935 26.788)" fill="#f2f2f2"/><path d="M519.545,312.7h-104.6a1.269,1.269,0,1,1,0-2.539h104.6a1.269,1.269,0,0,1,0,2.539Z" transform="translate(867.767 15.987)" fill="#f2f2f2"/><path d="M721.723,313.147H617.12a1.269,1.269,0,1,1,0-2.539h104.6a1.269,1.269,0,0,1,0,2.539Z" transform="translate(779.586 15.79)" fill="#f2f2f2"/><path d="M520,337.462h-104.6a1.269,1.269,0,0,1,0-2.539H520a1.269,1.269,0,1,1,0,2.539Z" transform="translate(867.571 5.185)" fill="#f2f2f2"/><path d="M520.446,362.228h-104.6a1.269,1.269,0,0,1,0-2.539h104.6a1.269,1.269,0,1,1,0,2.539Z" transform="translate(867.374 -5.617)" fill="#f2f2f2"/><path d="M662.389,263.615H632.43a1.269,1.269,0,1,1,0-2.539h29.959a1.269,1.269,0,0,1,0,2.539Z" transform="translate(772.908 37.394)" fill="#f2f2f2"/><path d="M662.389,337.462H632.43a1.269,1.269,0,1,1,0-2.539h29.959a1.269,1.269,0,0,1,0,2.539Z" transform="translate(772.908 5.185)" fill="#f2f2f2"/><path d="M662.389,361.778H632.43a1.269,1.269,0,0,1,0-2.539h29.959a1.269,1.269,0,0,1,0,2.539Z" transform="translate(772.908 -5.42)" fill="#f2f2f2"/><path d="M751.546,361.778H721.587a1.269,1.269,0,0,1,0-2.539h29.959a1.269,1.269,0,1,1,0,2.539Z" transform="translate(734.022 -5.42)" fill="#f2f2f2"/><path d="M443.55,287.931H413.591a1.269,1.269,0,1,1,0-2.539H443.55a1.269,1.269,0,0,1,0,2.539Z" transform="translate(868.356 26.788)" fill="#f2f2f2"/><path d="M518.87,627.9h-104.6a1.269,1.269,0,0,1,0-2.539h104.6a1.269,1.269,0,1,1,0,2.539Z" transform="translate(868.061 -121.49)" fill="#f2f2f2"/><path d="M517.969,677.428h-104.6a1.269,1.269,0,1,1,0-2.539h104.6a1.269,1.269,0,1,1,0,2.539Z" transform="translate(868.454 -143.093)" fill="#f2f2f2"/><path d="M518.419,702.194h-104.6a1.269,1.269,0,1,1,0-2.539h104.6a1.269,1.269,0,1,1,0,2.539Z" transform="translate(868.258 -153.895)" fill="#f2f2f2"/><path d="M655.41,677.878H625.451a1.269,1.269,0,1,1,0-2.539H655.41a1.27,1.27,0,0,1,0,2.539Z" transform="translate(775.952 -143.289)" fill="#f2f2f2"/><path d="M655.41,702.194H625.451a1.269,1.269,0,1,1,0-2.539H655.41a1.269,1.269,0,0,1,0,2.539Z" transform="translate(775.952 -153.895)" fill="#f2f2f2"/><path d="M744.566,677.878H714.607a1.269,1.269,0,1,1,0-2.539h29.959a1.27,1.27,0,0,1,0,2.539Z" transform="translate(737.066 -143.289)" fill="#f2f2f2"/><path d="M675.6,652.662H511.078a1.27,1.27,0,0,1,0-2.539H675.6a1.27,1.27,0,1,1,0,2.539Z" transform="translate(825.837 -132.291)" fill="#f2f2f2"/><path d="M443.775,652.662H413.816a1.27,1.27,0,0,1,0-2.539h29.959a1.27,1.27,0,0,1,0,2.539Z" transform="translate(868.258 -132.291)" fill="#f2f2f2"/><path d="M675.6,727.41H511.078a1.269,1.269,0,1,1,0-2.539H675.6a1.269,1.269,0,1,1,0,2.539Z" transform="translate(825.837 -164.893)" fill="#f2f2f2"/><path d="M443.775,727.41H413.816a1.269,1.269,0,1,1,0-2.539h29.959a1.269,1.269,0,1,1,0,2.539Z" transform="translate(868.258 -164.893)" fill="#f2f2f2"/><path d="M487.637,401.13l-40.623,40.115,40.623,40.115,9.14-9.14L466.056,441.5l30.974-30.975Z" transform="translate(874.033 -11.005)" fill="#8cd2b1"/><path d="M618.061,401.13l40.623,40.115-40.623,40.115-9.14-9.14L639.642,441.5l-30.975-30.975Z" transform="translate(803.527 -11.005)" fill="#8cd2b1"/><circle cx="5.075" cy="5.075" r="5.075" transform="translate(1185.825 258.676)" fill="#8cd2b1"/><circle cx="5.075" cy="5.075" r="5.075" transform="translate(1199.358 258.676)" fill="#8cd2b1"/><circle cx="5.075" cy="5.075" r="5.075" transform="translate(1212.89 258.676)" fill="#8cd2b1"/><rect width="424.011" height="1.692" transform="translate(1179.623 272.208)" opacity="0.1"/><path d="M1089.236,566.756c0,35.957-21.376,48.512-47.744,48.512s-47.744-12.555-47.744-48.512,47.744-81.7,47.744-81.7S1089.236,530.8,1089.236,566.756Z" transform="translate(614.764 -60.296)" fill="#f2f2f2"/><path d="M1023.588,587.267l.49-30.093,20.349-37.229-20.27,32.509.22-13.531,14.023-26.934-13.966,23.354h0l.395-24.336,15.021-21.444-14.959,17.617.248-44.623-1.551,59.073.124-2.437-15.269-23.372,15.026,28.05-1.427,27.179-.04-.722-17.6-24.6,17.547,27.144-.175,3.4-.034.051.017.279-3.609,68.956h4.821l.575-35.617,17.507-27.078Z" transform="translate(630.926 -37.796)" fill="#3f3d56"/><path d="M146.849,771.03A24.317,24.317,0,0,1,142.238,773c-2.864.782-5.924.5-8.817,1.163-1.184.273-2.473.845-2.85,2a4.2,4.2,0,0,0,.312,2.607c3.2,9.371,5.123,19.321,10.22,27.809a42.084,42.084,0,0,0,7.89,9.578,7.523,7.523,0,0,0,4.023,2.23,4.087,4.087,0,0,0,4.156-5.741c-.457-1.015-1.307-1.8-1.854-2.772a10.576,10.576,0,0,1-1.026-3.942c-.5-4.008-.989-8.2.4-11.99.931-2.544,2.64-4.713,4.063-7.018s2.606-4.946,2.289-7.637a13.264,13.264,0,0,0-2.058-5.105c-.948-1.592-2.822-5.869-4.727-6.4C152.281,767.237,148.573,770.146,146.849,771.03Z" transform="translate(991.291 -183.581)" fill="#2f2e41"/><path d="M248.995,822.377a7.9,7.9,0,0,1-.374,2.676c-.6,1.575-2.076,2.654-2.84,4.154-1.063,2.086-.581,4.609.123,6.842a7.011,7.011,0,0,0,2.206,3.723,7.271,7.271,0,0,0,3.357,1.075c10.17,1.407,20.5.6,30.763.895,1.87.054,3.851.119,5.484-.795s2.642-3.212,1.532-4.718c-1-1.352-2.969-1.34-4.647-1.42a19.121,19.121,0,0,1-11.792-4.857,8.522,8.522,0,0,1-1.654-1.9,11.7,11.7,0,0,1-.865-1.983,88.422,88.422,0,0,0-5.122-11.344,6.009,6.009,0,0,0-2.2-2.637,5.82,5.82,0,0,0-2.39-.522c-2.558-.166-9.181-1.036-11.159.953C247.586,814.353,249.035,820.043,248.995,822.377Z" transform="translate(941.264 -202.559)" fill="#2f2e41"/><circle cx="16.337" cy="16.337" r="16.337" transform="translate(1189.661 360.024)" fill="#fbbebe"/><path d="M249.827,417.284a12.281,12.281,0,0,1-5.018,6.445l22.6,4.609a23.937,23.937,0,0,1-.317-10.075,5.808,5.808,0,0,0,.135-2.486c-.425-1.639-2.27-2.428-3.921-2.8-4.124-.94-7.771-1.444-11.6-3.266C250.527,411.712,250.691,414.972,249.827,417.284Z" transform="translate(941.418 -27.432)" fill="#fbbebe"/><path d="M228.642,422.511a17.67,17.67,0,0,1,15.4.4,34.86,34.86,0,0,1,7.652,6.1c2.172,2.1,4.49,4.5,4.644,7.51a21.045,21.045,0,0,1-.611,4.332,14.528,14.528,0,0,0,7.77,14.925c1.8,2.99,2.166,6.613,2.193,10.1.1,13.214-4.065,26.591-1.088,39.466.7,3.023,1.783,5.951,2.386,8.994.782,3.942.743,8,1.152,11.993a53.718,53.718,0,0,0,2.883,12.684,5.269,5.269,0,0,1-4.873,2.037,13.766,13.766,0,0,1-5.211-1.768c-7.963-4.075-15.257-9.448-23.5-12.912-5.457-2.291-11.27-3.719-16.563-6.365s-10.217-6.846-11.835-12.539a29.348,29.348,0,0,1-.781-7.614c-.161-10.777-.31-21.672,2.035-32.192,2.069-9.277,6.057-18.152,6.926-27.618.283-3.081.289-6.379,2.011-8.95C221.66,427.469,226.914,426.528,228.642,422.511Z" transform="translate(957.396 -32.331)" fill="#2f2e41"/><path d="M249.676,380.352c.963-1.256,2.819-1.427,4.357-1.055s2.956,1.164,4.509,1.465a2.636,2.636,0,0,0,2.111-.3,3.07,3.07,0,0,0,.911-2.013,38.435,38.435,0,0,0,.378-9.8,2.9,2.9,0,0,1,.09-1.374c.385-.927,1.558-1.147,2.516-1.444a7.508,7.508,0,0,0,5.082-7.687,3.057,3.057,0,0,0-.934-2.109,3.843,3.843,0,0,0-2.445-.58q-6.587-.053-13.175,0a9.568,9.568,0,0,0-4.742.864,23.042,23.042,0,0,0-2.752,2.318c-2.439,1.968-5.739,2.369-8.706,3.378a8.632,8.632,0,0,0-3.816,2.275,4.02,4.02,0,0,0-.842,4.168,14.8,14.8,0,0,0,1.064,1.637c1.751,2.8.585,6.43.847,9.72.326,4.109,6.408,10.776,10.532,11.748C251.318,393.141,247.471,383.05,249.676,380.352Z" transform="translate(947.031 -3.76)" fill="#2f2e41"/><path d="M244.595,697.023a48.759,48.759,0,0,1,.815,9.038c-.2,4.225-1.725,8.3-2.007,12.517-.21,3.152.276,6.339-.162,9.468-.28,2-.934,3.935-1.338,5.917a24.468,24.468,0,0,0,3.932,18.757,3.07,3.07,0,0,0,1.141,1.106,3.221,3.221,0,0,0,1.414.187,101.449,101.449,0,0,0,14.192-1.29,1.361,1.361,0,0,0,.911-.4,1.277,1.277,0,0,0,.2-.538c.87-4.475-1.115-8.961-1.619-13.492-.539-4.838.622-9.685,1.774-14.415a64.024,64.024,0,0,1,1.955-6.895c.557-1.521,1.229-3,1.712-4.546a34.658,34.658,0,0,0,1.242-7.444q.5-5.963.533-11.953a50.159,50.159,0,0,0-.939-11.283c-1.059-4.7-3.227-9.067-5.377-13.38a8.472,8.472,0,0,0-3.168,1.505,70.681,70.681,0,0,1-8.655,4.782c-2.011.934-5.933,1.6-7.209,3.544-1.259,1.92-.447,5.836-.35,7.953Q243.837,691.61,244.595,697.023Z" transform="translate(942.889 -140.252)" fill="#2f2e41"/><path d="M244.595,697.023a48.759,48.759,0,0,1,.815,9.038c-.2,4.225-1.725,8.3-2.007,12.517-.21,3.152.276,6.339-.162,9.468-.28,2-.934,3.935-1.338,5.917a24.468,24.468,0,0,0,3.932,18.757,3.07,3.07,0,0,0,1.141,1.106,3.221,3.221,0,0,0,1.414.187,101.449,101.449,0,0,0,14.192-1.29,1.361,1.361,0,0,0,.911-.4,1.277,1.277,0,0,0,.2-.538c.87-4.475-1.115-8.961-1.619-13.492-.539-4.838.622-9.685,1.774-14.415a64.024,64.024,0,0,1,1.955-6.895c.557-1.521,1.229-3,1.712-4.546a34.658,34.658,0,0,0,1.242-7.444q.5-5.963.533-11.953a50.159,50.159,0,0,0-.939-11.283c-1.059-4.7-3.227-9.067-5.377-13.38a8.472,8.472,0,0,0-3.168,1.505,70.681,70.681,0,0,1-8.655,4.782c-2.011.934-5.933,1.6-7.209,3.544-1.259,1.92-.447,5.836-.35,7.953Q243.837,691.61,244.595,697.023Z" transform="translate(942.889 -140.252)" opacity="0.1"/><path d="M191.27,605.518c-2.17,5.841,1.02,12.153,3.79,17.734,6.826,13.75,11.566,28.422,16.281,43.031a5.276,5.276,0,0,1,.312,3.369,4.412,4.412,0,0,1-1.591,1.887c-3.251,2.469-7.39,3.349-11.263,4.64a50.841,50.841,0,0,0-10.681,5.007c-2.806,1.739-5.435,3.746-8.058,5.75l-8.352,6.378a5.584,5.584,0,0,0-1.4,1.351c-.806,1.264-.476,2.914-.075,4.358a74.109,74.109,0,0,0,4.089,11.16,3.9,3.9,0,0,0,1.483,1.943c1.3.7,2.9-.228,3.893-1.323s1.856-2.458,3.26-2.928,2.944.1,4.408-.106c2.367-.332,3.939-2.513,5.646-4.187,6.972-6.84,18.613-6.344,26.282-12.392a33.4,33.4,0,0,1,3.513-2.745c1.3-.766,2.767-1.187,4.112-1.864,4.092-2.06,6.664-6.32,8.042-10.689s1.771-8.981,2.761-13.454a58.5,58.5,0,0,0,1.413-6.957A37.265,37.265,0,0,0,239,648.9l-2.767-34.234c-.225-2.787-.451-5.578-.888-8.34-8.219.294-16.432.624-24.656.722C204.143,607.128,197.479,607.586,191.27,605.518Z" transform="translate(974.125 -112.836)" fill="#2f2e41"/><path d="M201.892,609.335c1.115,1.793,3.829,1.756,5.7.773s3.32-2.635,5.193-3.609c2.517-1.31,5.5-1.26,8.331-1.18,4.49.127,9.036.262,13.356,1.492,4.468,1.273,8.818,3.723,13.439,3.234a2.764,2.764,0,0,0,2.121-1,3.126,3.126,0,0,0,.349-1.6l.151-4.037a3.645,3.645,0,0,0-.321-2.044,3.428,3.428,0,0,0-1.531-1.172c-6.576-3.184-14.076-3.776-21.378-4.026q-5.568-.191-11.14-.157c-3.152.019-6.937-.437-10,.405C202.043,597.55,199.805,605.979,201.892,609.335Z" transform="translate(960.482 -108.645)" fill="#2f2e41"/><path d="M242.478,427.648c-8.617-.076-16.425-5.764-25.041-5.9a6.493,6.493,0,0,0-3.041.525,11.321,11.321,0,0,0-2.9,2.762c-2.548,2.759-6.237,4.232-8.854,6.925-2.454,2.525-3.819,6.287-2.85,9.672s4.626,5.982,8.051,5.168a20.75,20.75,0,0,1,8.084-10.984,41.1,41.1,0,0,1,6.318-3.317c3.872-1.754,8.2-3.543,12.246-2.227a17.274,17.274,0,0,1,4.178,2.278l6.74,4.528C244.622,433.977,243.915,430.5,242.478,427.648Z" transform="translate(961.19 -32.676)" fill="#75c2ad"/><path d="M203.278,449.225c-1.144,1.427.5,3.5.252,5.308-.168,1.2-1.158,2.123-1.571,3.266-.427,1.184-.2,2.5-.363,3.745a16.065,16.065,0,0,1-.719,2.667,47.914,47.914,0,0,0-1.515,7.908l-1.508,11.263a42.673,42.673,0,0,0-.477,5.119,15.284,15.284,0,0,1-.255,3.827,28.265,28.265,0,0,1-1.571,3.482,4.08,4.08,0,0,0-.056,3.679,6.43,6.43,0,0,0-1.346,8.026,4.455,4.455,0,0,1,.694,1.277,3.282,3.282,0,0,1-.305,1.883l-1.525,4.063c-.39,1.04-.514,2.624.571,2.861a9.589,9.589,0,0,0-2.059,3.252,3.871,3.871,0,0,0,.548,3.668,4.672,4.672,0,0,1,.955,1.159,3.086,3.086,0,0,1-.11,1.829,6.713,6.713,0,0,0,.831,5.263A4.72,4.72,0,0,0,198.5,534.8c3.051-.688,5.792-1.774,8.868-1.21a158.44,158.44,0,0,1,19.682,4.484c7.321,2.337,14.41,5.765,22.061,6.484a2.141,2.141,0,0,0,1.475-.229,2.216,2.216,0,0,0,.682-1.4l2.365-11.088a114.108,114.108,0,0,0,2.174-12.42c.269-2.7.346-5.407.422-8.115l.609-21.556a21.538,21.538,0,0,0-1.24-9.371l-3.506-11.191c-2-6.387-6.59-12.05-8.224-18.54-1.034-4.108-1.8-8.516-4.572-11.717-3.954-4.564-10.795-5.274-16.782-4.49a20.051,20.051,0,0,0-7.773,2.369c-2.705,1.622-4.7,4.177-6.627,6.674C206.522,445.543,204.9,447.2,203.278,449.225Z" transform="translate(964.761 -38.1)" fill="#8cd2b1"/><path d="M236.915,562.507c.493,2.127,1.529,4.088,2.163,6.178,1.062,3.5.972,7.271,2.033,10.772.445,1.47,1.09,2.881,1.409,4.383.745,3.5-.343,7.125-1.694,10.44s-3,6.585-3.434,10.138c-.309,2.5.135,5.328,2.064,6.953,2,1.686,4.913,1.572,7.521,1.348a7.9,7.9,0,0,0,2.73-.568c1.995-.944,2.835-3.3,3.3-5.461,1.563-7.228,1.116-14.72.662-22.1l-1.188-19.3a45.176,45.176,0,0,0-1.619-11.078c-.417-1.3-1.143-3.921-2.328-4.75s-4.528-.857-5.982-.926C235.733,548.212,235.81,557.733,236.915,562.507Z" transform="translate(945.105 -87.978)" fill="#fbbebe"/><path d="M240.189,446.606a4.7,4.7,0,0,0-4.495.4,13.853,13.853,0,0,0-3.367,3.269c-3.01,3.674-6.2,7.891-5.751,12.62a32.009,32.009,0,0,0,1.307,5.172c2.018,7.544-.214,15.523.043,23.328a73.043,73.043,0,0,0,2.107,13.352c.2.9.519,1.94,1.389,2.243a3.016,3.016,0,0,0,2.006-.311,16,16,0,0,1,14.639,1.845c1.615-.862,1.01-3.587.648-5.382-1.076-5.333.385-10.834,2.159-15.977s3.9-10.279,4.19-15.711c.333-6.155-1.708-12.163-3.721-17.988a5.784,5.784,0,0,0-4.872-4.824A33.615,33.615,0,0,1,240.189,446.606Z" transform="translate(949.388 -43.347)" fill="#2f2e41"/></g></svg>