<svg xmlns="http://www.w3.org/2000/svg" viewBox="0 0 486.65 109.63"><defs><style>.cls-1{fill:#22577a;}.cls-2{fill:#38a3a5;}</style></defs><title>logo-SVG</title><g id="Layer_2" data-name="Layer 2"><g id="Layer_1-2" data-name="Layer 1"><path class="cls-1" d="M19.24,13H11.79V57.41H7.51V13H0V9.23H19.24Z"/><path class="cls-1" d="M40.08,57.41H24.26V9.23H39.89V13H28.53V31H38.88v3.85H28.53V53.62H40.08Z"/><path class="cls-1" d="M66.06,54a3.25,3.25,0,0,1-1,2.46,3.42,3.42,0,0,1-2.49,1H50.17a3.33,3.33,0,0,1-2.46-1,3.29,3.29,0,0,1-1-2.46V12.65a3.27,3.27,0,0,1,3.41-3.42H62.58a3.42,3.42,0,0,1,2.49,1,3.26,3.26,0,0,1,1,2.46V23.86H61.75V13H51v40.6H61.75V41.77h4.31Z"/><path class="cls-1" d="M89.43,9.24V30.41H77.81V9.24H73.54V57.42h4.27V34.25H89.43v8.11L93.7,30.62V9.24Z"/><path class="cls-1" d="M135.05,6.94V74.86l-21.42-59-9.44,26v59.13H112V31.8l25.11,69.12h5.77v-94Z"/><path class="cls-1" d="M192.09,100.92h-9.18L161.23,55.76v45.16h-8.35V7h8.35V49.16L180.93,7H190v.54L168.74,52.22Z"/><path class="cls-1" d="M234.13,94.26a6.44,6.44,0,0,1-1.89,4.8,6.61,6.61,0,0,1-4.84,1.86H201.82a6.37,6.37,0,0,1-6.66-6.66V7h8.35V93.54h22.27V7h8.35Z"/><path class="cls-1" d="M274.13,100.92h-30V7h8.35V93.54h21.68Z"/><path class="cls-1" d="M319.46,94.26a6.44,6.44,0,0,1-1.89,4.8,6.6,6.6,0,0,1-4.83,1.86H287.16a6.37,6.37,0,0,1-6.67-6.66V7h8.35V93.54h22.28V7h8.34Z"/><path class="cls-1" d="M359.46,100.92h-30V7h8.35V93.54h21.68Z"/><path class="cls-1" d="M396.69,100.92H365.82V7h30.51v7.38H374.17V49.4h20.18v7.51H374.17V93.54h22.52Z"/><path class="cls-1" d="M443.89,100.92H434.7L413,55.76v45.16h-8.34V7H413V49.16L432.72,7h9.07v.54L420.53,52.22Z"/><path class="cls-1" d="M486.65,94.26a6.44,6.44,0,0,1-1.89,4.8,6.62,6.62,0,0,1-4.84,1.86h-26.3A6.37,6.37,0,0,1,447,94.26V13.61A6.37,6.37,0,0,1,453.62,7h26.3a6.62,6.62,0,0,1,4.84,1.86,6.44,6.44,0,0,1,1.89,4.8Zm-8.35-.72V14.33h-23V93.54Z"/><path class="cls-1" d="M26.07,60.69,20.6,101H17.69L13.32,70.69c0-.53-.05-1.32-.1-2.36,0,.55,0,1.34-.1,2.36L8.75,101H5.84L.37,60.69H3.91l3.42,29c0,.65.06,1.61.11,2.87,0-.65,0-1.61.1-2.87l4.16-29h3.06l4.14,29c0,.65.07,1.61.1,2.87,0-.65.05-1.61.13-2.87l3.42-29Z"/><path class="cls-1" d="M34.63,100.92H31.06V60.69h3.57Z"/><path class="cls-1" d="M55.2,63.86H49v37.06H45.4V63.86H39.13V60.69H55.2Z"/><path class="cls-1" d="M72.66,60.7V78.37H63V60.7H59.38v40.22H63V81.59h9.7v6.85l3.56-9.8V60.7Z"/><rect class="cls-2" x="87.12" y="-1.68" width="10.1" height="112.99" transform="translate(24.31 -28.22) rotate(20)"/></g></g></svg>